<?xml version="1.0" encoding="utf-8"?>
<!-- Generator: Adobe Illustrator 25.0.1, SVG Export Plug-In . SVG Version: 6.00 Build 0)  -->
<svg version="1.1" id="katman_1" xmlns="http://www.w3.org/2000/svg" xmlns:xlink="http://www.w3.org/1999/xlink" x="0px" y="0px"
	 viewBox="0 0 1080 1080" style="enable-background:new 0 0 1080 1080;" xml:space="preserve">
<style type="text/css">
	.st0{fill:#373889;}
	.st1{fill:#9ED7E8;}
	.st2{fill:none;stroke:#9ED7E8;stroke-width:20;stroke-miterlimit:10;}
</style>
<g>
	<circle class="st0" cx="540.32" cy="540.32" r="517.76"/>
	<path class="st1" d="M564,480.34L564,480.34c37.08,0,67.13-30.06,67.13-67.13v0c0-37.08-30.06-67.13-67.13-67.13h0
		c-37.08,0-67.13,30.06-67.13,67.13v0C496.87,450.29,526.93,480.34,564,480.34z"/>
	<path class="st1" d="M1015.24,523.13l-96.58,84.92l-79.1,69.55L729,774.81c-12.7,11.19-32.07,9.93-43.24-2.77
		c-0.39-0.43-0.75-0.88-1.1-1.34c-2.31-2.92-3.99-6.18-5.08-9.56c-3.59-11.24-0.49-24.06,8.96-32.35l7.43-6.54l2.24-1.96l0.71-0.63
		l110-96.72l165.86-145.84c5.83-5.12,13.05-7.64,20.23-7.64c8.5,0,16.96,3.52,23.01,10.41
		C1029.18,492.6,1027.95,511.95,1015.24,523.13z"/>
	<g>
		<path class="st1" d="M596.67,749.89l-45.62,14.54l0.04,0.11l-10.45,3.26c-16.15,5.02-33.34-3.99-38.36-20.16
			c-2.73-8.77-1.32-17.82,3.1-25.07c3.74-6.14,9.66-10.98,17.06-13.29l31.46-9.78l-20.94-18.42l-1.92-1.68l-17.06-15l-40.07,35.24
			l-56.67,49.84l-29.33,25.78c-9.75,8.6-24.39,8.6-34.14,0l-1.11-0.97l-0.08-0.06c-0.74-0.54-1.46-1.13-2.16-1.74l-26.07-22.93
			L64.18,520.8c-12.7-11.17-13.95-30.53-2.78-43.24c6.07-6.89,14.53-10.41,23.03-10.41c7.18,0,14.4,2.52,20.22,7.64l215.04,189.08
			c0.01,0,0.03,0.01,0.04,0.03l51.03,44.87l0.1-0.08l97.1-85.38l25.43-22.36c3.26-2.85,6.94-4.9,10.81-6.15
			c3.06-1,6.25-1.49,9.42-1.49c6.93,0,13.83,2.34,19.42,6.93c0.5,0.01,1,0.19,1.41,0.56l44.91,39.5l6.65,5.84l-1.75-17.02
			c-1.73-16.82,10.5-31.87,27.34-33.61c9.13-0.93,17.73,2.24,23.97,8.01c3.41,3.16,6.11,7.11,7.81,11.59l6.11,54.68l6.82,61.09
			L596.67,749.89z"/>
		<path class="st1" d="M650,669.62l6.29,61.26l-6.82-61.09l-6.11-54.68c0.93,2.43,1.54,5.04,1.82,7.75L650,669.62z"/>
		<polygon class="st1" points="656.39,731.79 596.71,750.35 596.67,749.89 656.29,730.87 		"/>
		<polygon class="st1" points="650,669.62 656.29,730.87 649.47,669.78 		"/>
		<polygon class="st1" points="656.4,731.79 656.39,731.79 596.71,750.35 551.09,764.54 551.05,764.43 596.67,749.89 656.29,730.87 
					"/>
		<polygon class="st1" points="656.4,731.79 656.39,731.79 596.71,750.35 551.09,764.54 551.05,764.43 596.67,749.89 656.29,730.87 
					"/>
		<path class="st1" d="M656.29,730.87l-6.82-61.09l-6.11-54.68c0.93,2.43,1.54,5.04,1.82,7.75l4.81,46.76L656.29,730.87z"/>
	</g>
	<circle class="st2" cx="539.68" cy="539.68" r="517.76"/>
</g>
</svg>
